<svg width="213" height="69" viewBox="0 0 213 69" fill="none" xmlns="http://www.w3.org/2000/svg">
<path d="M0 10C0 4.47715 4.47715 0 10 0H118C123.523 0 128 4.47715 128 10V59C128 64.5228 123.523 69 118 69H10C4.47715 69 0 64.5229 0 59V10Z" fill="#27C529"/>
<path d="M19.5284 18.9091H27.1136L35.125 38.4545H35.4659L43.4773 18.9091H51.0625V48H45.0966V29.0653H44.8551L37.3267 47.858H33.2642L25.7358 28.9943H25.4943V48H19.5284V18.9091ZM62.2379 48.4119C60.8459 48.4119 59.6054 48.1705 58.5163 47.6875C57.4273 47.1951 56.5656 46.4706 55.9311 45.5142C55.3061 44.5483 54.9936 43.3456 54.9936 41.9062C54.9936 40.6941 55.2161 39.6761 55.6612 38.8523C56.1063 38.0284 56.7124 37.3655 57.4794 36.8636C58.2464 36.3617 59.1177 35.983 60.093 35.7273C61.0779 35.4716 62.1101 35.2917 63.1896 35.1875C64.4586 35.0549 65.4813 34.9318 66.2578 34.8182C67.0343 34.6951 67.5978 34.5152 67.9482 34.2784C68.2985 34.0417 68.4737 33.6913 68.4737 33.2273V33.142C68.4737 32.2424 68.1896 31.5464 67.6214 31.054C67.0627 30.5616 66.2673 30.3153 65.2351 30.3153C64.1461 30.3153 63.2796 30.5568 62.6357 31.0398C61.9917 31.5133 61.5656 32.1098 61.3572 32.8295L55.7607 32.375C56.0447 31.0492 56.6035 29.9034 57.4368 28.9375C58.2701 27.9621 59.3449 27.214 60.6612 26.6932C61.987 26.1629 63.5211 25.8977 65.2635 25.8977C66.4756 25.8977 67.6357 26.0398 68.7436 26.3239C69.861 26.608 70.8506 27.0483 71.7124 27.6449C72.5836 28.2415 73.2701 29.0085 73.772 29.946C74.2739 30.8741 74.5249 31.9867 74.5249 33.2841V48H68.7862V44.9744H68.6158C68.2654 45.6562 67.7966 46.2576 67.2095 46.7784C66.6224 47.2898 65.9169 47.6922 65.093 47.9858C64.2692 48.2699 63.3175 48.4119 62.2379 48.4119ZM63.9709 44.2358C64.861 44.2358 65.647 44.0606 66.3288 43.7102C67.0107 43.3504 67.5457 42.8674 67.9339 42.2614C68.3222 41.6553 68.5163 40.9687 68.5163 40.2017V37.8864C68.3269 38.0095 68.0665 38.1231 67.7351 38.2273C67.4131 38.322 67.0485 38.4119 66.6413 38.4972C66.2341 38.5729 65.8269 38.6439 65.4197 38.7102C65.0125 38.767 64.6432 38.8191 64.3118 38.8665C63.6016 38.9706 62.9813 39.1364 62.451 39.3636C61.9207 39.5909 61.5088 39.8987 61.2152 40.2869C60.9216 40.6657 60.7749 41.1392 60.7749 41.7074C60.7749 42.5312 61.0732 43.161 61.6697 43.5966C62.2758 44.0227 63.0429 44.2358 63.9709 44.2358ZM85.4411 48.4119C84.049 48.4119 82.8085 48.1705 81.7195 47.6875C80.6304 47.1951 79.7687 46.4706 79.1342 45.5142C78.5092 44.5483 78.1967 43.3456 78.1967 41.9062C78.1967 40.6941 78.4193 39.6761 78.8643 38.8523C79.3094 38.0284 79.9155 37.3655 80.6825 36.8636C81.4496 36.3617 82.3208 35.983 83.2962 35.7273C84.281 35.4716 85.3132 35.2917 86.3928 35.1875C87.6617 35.0549 88.6844 34.9318 89.4609 34.8182C90.2375 34.6951 90.8009 34.5152 91.1513 34.2784C91.5017 34.0417 91.6768 33.6913 91.6768 33.2273V33.142C91.6768 32.2424 91.3928 31.5464 90.8246 31.054C90.2659 30.5616 89.4704 30.3153 88.4382 30.3153C87.3492 30.3153 86.4827 30.5568 85.8388 31.0398C85.1948 31.5133 84.7687 32.1098 84.5604 32.8295L78.9638 32.375C79.2479 31.0492 79.8066 29.9034 80.6399 28.9375C81.4732 27.9621 82.5481 27.214 83.8643 26.6932C85.1901 26.1629 86.7242 25.8977 88.4666 25.8977C89.6787 25.8977 90.8388 26.0398 91.9467 26.3239C93.0642 26.608 94.0537 27.0483 94.9155 27.6449C95.7867 28.2415 96.4732 29.0085 96.9751 29.946C97.477 30.8741 97.728 31.9867 97.728 33.2841V48H91.9893V44.9744H91.8189C91.4685 45.6562 90.9998 46.2576 90.4126 46.7784C89.8255 47.2898 89.12 47.6922 88.2962 47.9858C87.4723 48.2699 86.5206 48.4119 85.4411 48.4119ZM87.174 44.2358C88.0642 44.2358 88.8501 44.0606 89.532 43.7102C90.2138 43.3504 90.7488 42.8674 91.1371 42.2614C91.5253 41.6553 91.7195 40.9687 91.7195 40.2017V37.8864C91.5301 38.0095 91.2697 38.1231 90.9382 38.2273C90.6162 38.322 90.2517 38.4119 89.8445 38.4972C89.4373 38.5729 89.0301 38.6439 88.6229 38.7102C88.2157 38.767 87.8464 38.8191 87.5149 38.8665C86.8047 38.9706 86.1844 39.1364 85.6541 39.3636C85.1238 39.5909 84.7119 39.8987 84.4183 40.2869C84.1248 40.6657 83.978 41.1392 83.978 41.7074C83.978 42.5312 84.2763 43.161 84.8729 43.5966C85.4789 44.0227 86.246 44.2358 87.174 44.2358ZM108.474 35.3864V48H102.423V26.1818H108.19V30.0312H108.445C108.928 28.7623 109.738 27.7585 110.874 27.0199C112.011 26.2718 113.388 25.8977 115.008 25.8977C116.523 25.8977 117.844 26.2292 118.971 26.892C120.098 27.5549 120.974 28.5019 121.599 29.733C122.224 30.9545 122.536 32.4129 122.536 34.108V48H116.485V35.1875C116.495 33.8523 116.154 32.8106 115.462 32.0625C114.771 31.3049 113.819 30.9261 112.607 30.9261C111.793 30.9261 111.073 31.1013 110.448 31.4517C109.833 31.8021 109.35 32.3134 108.999 32.9858C108.658 33.6487 108.483 34.4489 108.474 35.3864Z" fill="white"/>
<path d="M150.455 50.3551C148.797 50.3551 147.296 49.929 145.952 49.0767C144.616 48.215 143.556 46.9508 142.77 45.2841C141.993 43.608 141.605 41.553 141.605 39.1193C141.605 36.6193 142.008 34.5407 142.812 32.8835C143.617 31.2169 144.688 29.9716 146.023 29.1477C147.367 28.3144 148.84 27.8977 150.44 27.8977C151.662 27.8977 152.68 28.1061 153.494 28.5227C154.318 28.9299 154.981 29.4413 155.483 30.0568C155.994 30.6629 156.383 31.2595 156.648 31.8466H156.832V20.9091H162.869V50H156.903V46.5057H156.648C156.364 47.1117 155.961 47.7131 155.44 48.3097C154.929 48.8968 154.261 49.3845 153.438 49.7727C152.623 50.161 151.629 50.3551 150.455 50.3551ZM152.372 45.5398C153.348 45.5398 154.171 45.2746 154.844 44.7443C155.526 44.2045 156.046 43.4517 156.406 42.4858C156.776 41.5199 156.96 40.3883 156.96 39.0909C156.96 37.7936 156.78 36.6667 156.42 35.7102C156.061 34.7538 155.54 34.0152 154.858 33.4943C154.176 32.9735 153.348 32.7131 152.372 32.7131C151.378 32.7131 150.54 32.983 149.858 33.5227C149.176 34.0625 148.66 34.8106 148.31 35.767C147.959 36.7235 147.784 37.8314 147.784 39.0909C147.784 40.3598 147.959 41.482 148.31 42.4574C148.67 43.4233 149.186 44.1809 149.858 44.7301C150.54 45.2699 151.378 45.5398 152.372 45.5398ZM177.788 50.4261C175.543 50.4261 173.612 49.9716 171.992 49.0625C170.382 48.1439 169.142 46.8466 168.271 45.1705C167.399 43.4848 166.964 41.4915 166.964 39.1903C166.964 36.946 167.399 34.9763 168.271 33.2812C169.142 31.5862 170.368 30.2652 171.95 29.3182C173.54 28.3712 175.406 27.8977 177.546 27.8977C178.986 27.8977 180.326 28.1297 181.566 28.5938C182.816 29.0483 183.905 29.7348 184.833 30.6534C185.771 31.572 186.5 32.7273 187.021 34.1193C187.541 35.5019 187.802 37.1212 187.802 38.9773V40.6392H169.379V36.8892H182.106C182.106 36.018 181.916 35.2462 181.538 34.5739C181.159 33.9015 180.633 33.3759 179.961 32.9972C179.298 32.6089 178.526 32.4148 177.646 32.4148C176.727 32.4148 175.913 32.6278 175.202 33.054C174.502 33.4706 173.952 34.0341 173.555 34.7443C173.157 35.4451 172.953 36.2263 172.944 37.0881V40.6534C172.944 41.733 173.143 42.6657 173.54 43.4517C173.948 44.2377 174.521 44.8438 175.259 45.2699C175.998 45.696 176.874 45.9091 177.887 45.9091C178.559 45.9091 179.175 45.8144 179.734 45.625C180.292 45.4356 180.771 45.1515 181.168 44.7727C181.566 44.3939 181.869 43.9299 182.077 43.3807L187.674 43.75C187.39 45.0947 186.808 46.2689 185.927 47.2727C185.056 48.267 183.929 49.0436 182.546 49.6023C181.173 50.1515 179.587 50.4261 177.788 50.4261ZM211.506 28.1818L203.878 50H197.06L189.432 28.1818H195.824L200.355 43.7926H200.582L205.099 28.1818H211.506Z" fill="black"/>
</svg>
