<svg width="20" height="20" viewBox="0 0 20 20" fill="none" xmlns="http://www.w3.org/2000/svg">
<g clip-path="url(#clip0_6_19)">
<path d="M19.0955 0.905092C19.5951 1.40479 19.5951 2.21484 19.0955 2.71453L2.81048 19.0028C2.31075 19.5027 1.5004 19.5027 1.00067 19.0028C0.501079 18.5032 0.501078 17.6931 1.00067 17.1935L17.2856 0.905091C17.7853 0.405252 18.5957 0.405253 19.0955 0.905092Z" fill="#25CF2D"/>
<path d="M18.9993 19.0949C19.4989 18.5952 19.4989 17.7852 18.9993 17.2855L2.71435 0.997146C2.21462 0.497308 1.40427 0.49731 0.90454 0.997149C0.404948 1.49684 0.404948 2.3069 0.90454 2.80659L17.1895 19.0949C17.6892 19.5948 18.4996 19.5948 18.9993 19.0949Z" fill="#25CF2D"/>
</g>
<defs>
<clipPath id="clip0_6_19">
<rect width="20" height="20" fill="white"/>
</clipPath>
</defs>
</svg>
