<svg width="20" height="20" viewBox="0 0 20 20" fill="none" xmlns="http://www.w3.org/2000/svg">
<g clip-path="url(#clip0_6_18)">
<path d="M18.8882 0H1.11111C0.497461 0 0 0.617538 0 1.37931C0 2.14108 0.497461 2.75862 1.11111 2.75862H18.8882C19.5019 2.75862 19.9993 2.14108 19.9993 1.37931C19.9993 0.617538 19.5019 0 18.8882 0Z" fill="#2BBC67"/>
<path d="M18.8878 8.62069H8.38322C7.76957 8.62069 7.27211 9.23823 7.27211 10C7.27211 10.7618 7.76957 11.3793 8.38322 11.3793H18.8878C19.5015 11.3793 19.9989 10.7618 19.9989 10C19.9989 9.23823 19.5015 8.62069 18.8878 8.62069Z" fill="#2BBC67"/>
<path d="M18.8889 17.2414H3.83897C3.22532 17.2414 2.72786 17.8589 2.72786 18.6207C2.72786 19.3825 3.22532 20 3.83897 20H18.8889C19.5026 20 20 19.3825 20 18.6207C20 17.8589 19.5026 17.2414 18.8889 17.2414Z" fill="#2BBC67"/>
</g>
<defs>
<clipPath id="clip0_6_18">
<rect width="20" height="20" fill="white"/>
</clipPath>
</defs>
</svg>
